# xmcd
#
# Track frame offsets:
#	180
#	20140
#	26106
#	42461
#	58984
#	71682
#	89069
#	101606
#	111563
#	121100
#	138715
#	140330
#	153356
#	167035
#
# Disc length: 2454 seconds
#
# Revision: 1
# Processed by: cddbd v1.5.2PL0 Copyright (c) Steve Scherf et al.
# Submitted via: audiograbber 1.83.01
#
DISCID=d609940e
DTITLE=Basement app - a view from the basement
DYEAR=1993
DGENRE=Blues
TTITLE0=Things are never what they seemed
TTITLE1=Yummer man intro
TTITLE2=Yummer man
TTITLE3=All your love
TTITLE4=Mariano
TTITLE5=When I see you comin
TTITLE6=All what you do
TTITLE7=Mary Jane
TTITLE8=It must be love
TTITLE9=Bye bye baby
TTITLE10=That's all intro
TTITLE11=That's all
TTITLE12=When you got me babe
TTITLE13=I m no kind of dancer
EXTD=
EXTT0=
EXTT1=
EXTT2=
EXTT3=
EXTT4=
EXTT5=
EXTT6=
EXTT7=
EXTT8=
EXTT9=
EXTT10=
EXTT11=
EXTT12=
EXTT13=
PLAYORDER=
